<?xml version="1.0" encoding="utf-8"?>
<!-- Generator: Adobe Illustrator 19.0.0, SVG Export Plug-In . SVG Version: 6.00 Build 0)  -->
<svg version="1.1" id="Layer_1" xmlns="http://www.w3.org/2000/svg" xmlns:xlink="http://www.w3.org/1999/xlink" x="0px" y="0px"
	 width="537px" height="98.3px" viewBox="0 0 537 98.3" style="enable-background:new 0 0 537 98.3;" xml:space="preserve">
<style type="text/css">
	.st0{fill-rule:evenodd;clip-rule:evenodd;fill:#B0CB1F;}
	.st1{fill:none;stroke:#898778;stroke-width:2.8346;stroke-miterlimit:22.9256;}
	.st2{fill-rule:evenodd;clip-rule:evenodd;fill:#FFFFFF;}
	.st3{fill:#898778;}
	.st4{fill:none;stroke:#898778;stroke-width:2.8347;stroke-miterlimit:22.9256;}
	.st5{fill-rule:evenodd;clip-rule:evenodd;fill:#898778;}
	.st6{fill:#B0CB1F;}
</style>
<polygon class="st0" points="174.1,28.3 477.3,28.3 534,28.3 534,72.6 442.2,72.6 174.1,72.6 82.3,72.6 117.4,28.3 "/>
<polygon class="st1" points="174.1,28.3 477.3,28.3 534,28.3 534,72.6 442.2,72.6 174.1,72.6 82.3,72.6 117.4,28.3 "/>
<path class="st2" d="M497.4,42.3v22.6h-5.9V36.4h20.2c3,0,5.7,0.8,8,2.7c2.4,2,3.5,4.6,3.5,7.7c0,3.1-1.1,5.7-3.5,7.7
	c-2.3,1.9-5.1,2.7-8,2.7H499v-5.9h13.4c1.3,0,2.6-0.4,3.6-1.3c1-0.9,1.4-2,1.4-3.3c0-1.3-0.4-2.4-1.4-3.2c-1-0.9-2.3-1.2-3.6-1.2
	H497.4z M469,42.3V59h18.8v5.9h-24.7V36.4h24.7v5.9H469z M486.6,53.4h-16.7v-5.9h16.7V53.4z M441.8,59h18.8v5.9h-24.7V36.4h5.9V59z
	 M414.2,42.3V59H433v5.9h-24.7V36.4H433v5.9H414.2z M431.8,53.4H415v-5.9h16.7V53.4z M395.4,42.3v22.6h-5.9V42.3h-10.8v-5.9h27.4
	v5.9H395.4z M374.4,57.2h-13.7l3.6-5.9h6.5l-3.7-6.2l-12,19.8h-7.4l15.4-25.6c0.4-0.7,1-1.4,1.7-1.9c0.7-0.5,1.6-1,2.5-1
	c0.9,0,1.8,0.4,2.5,1c0.7,0.5,1.3,1.2,1.7,2l15,25.6l-7.5,0L374.4,57.2z M306.3,55.9c0,2.7-0.9,4.9-3,6.7c-2,1.7-4.4,2.3-7,2.3H275
	V59h21.4c1.1,0,2.2-0.2,3.1-0.8c0.9-0.6,1.4-1.4,1.4-2.4c0-1.1-0.5-1.8-1.4-2.4c-0.9-0.6-2-0.8-3.1-0.8h-12.9
	c-2.3,0-4.5-0.6-6.3-2.1c-1.9-1.6-2.8-3.6-2.8-6c0-2.4,0.9-4.5,2.8-6c1.8-1.5,4-2.1,6.3-2.1h21.2v5.9h-21.2c-0.7,0-1.4,0.2-2,0.6
	c-0.5,0.4-0.7,0.9-0.7,1.6c0,0.7,0.2,1.2,0.7,1.6c0.6,0.4,1.3,0.6,2,0.6h12.9c2.6,0,5,0.7,7,2.4C305.4,50.9,306.3,53.2,306.3,55.9z
	 M271.3,52c0,3.9-1,7.7-4.2,10.1c-2.9,2.2-7.1,2.8-10.7,2.8h-1.6c-3.6,0-7.7-0.5-10.7-2.8C241,59.7,240,55.9,240,52V36.4h5.9V52
	c0,2.5,0.7,4.9,3.1,6c1.9,0.9,5.5,0.9,7.5,0.9c2,0,4.8-0.2,6.5-1.3c1.9-1.3,2.5-3.5,2.5-5.6V36.4h5.9V52z M218.2,59h18.8v5.9h-24.7
	V36.4h5.9V59z M143.8,50.8c1.6,1.5,2.6,3.3,2.6,5.6c0,1.3-0.3,2.5-1,3.6c-2.2,3.8-6.4,4.9-10.5,4.9h-12.6V59h13.3
	c1.1,0,2.2-0.2,3.3-0.6c0.9-0.4,1.7-1,1.7-2c0-1.1-0.8-1.7-1.7-2c-1-0.4-2.1-0.6-3.3-0.6h-13.3v-5.9h13.3c1.1,0,2.3-0.2,3.3-0.7
	c0.9-0.4,1.7-1.1,1.7-2.2c0-1.1-0.8-1.7-1.7-2.1c-1.1-0.5-2.2-0.6-3.3-0.6h-13.3v-5.9h12.6c4,0,8,1.1,10.3,4.6
	c0.8,1.2,1.2,2.6,1.2,4.1C146.4,47.4,145.5,49.3,143.8,50.8z M186.4,64.1V36.4h5.9V59h18.8v5.9h-24.2l0,0l-7.5,0l-4.6-7.6h-13.7
	l3.6-5.9h6.5l-3.7-6.2l-12,19.8h-7.4l15.4-25.6c0.4-0.7,1-1.4,1.7-1.9c0.7-0.5,1.6-1,2.5-1c0.9,0,1.8,0.4,2.5,1
	c0.7,0.5,1.3,1.2,1.7,2L186.4,64.1z M334.7,54.6c0,3.3,0,6.5,0,9.8v0.6h-6v-0.6c0-5.5,0-11.1,0-16.6c0-1.6,0.1-3.3,0.3-4.9
	c0.8-5,4.2-6.3,9-6.3h15.9v6H338c-0.6,0-1.3,0.1-1.9,0.4l-0.6,0.5c-0.7,0.5-0.8,3.5-0.8,4.4c0,0.4,0,0.9,0,1.3h14.8l-5.1,5.5H334.7z
	"/>
<path class="st3" d="M534.3,95.5c0,0.9-0.3,1.4-0.9,1.4c-0.5,0-1-0.3-1.5-0.8l-9.1-9.2v9.9h-2.5v-13c0-0.3,0.1-0.6,0.3-0.9
	c0.2-0.2,0.4-0.4,0.8-0.4c0.5,0,0.9,0.2,1.4,0.7l9.1,9.2v-9.9h2.5V95.5z M518.9,96.8l-3.2,0l-2.4-4h-6.8l1.5-2.5h3.8l-2.5-4.1
	l-6.4,10.6h-3.2l7.7-12.9c0.2-0.3,0.5-0.6,0.8-0.9c0.4-0.3,0.8-0.5,1.1-0.5c0.4,0,0.7,0.2,1.1,0.5c0.3,0.3,0.6,0.6,0.8,0.9
	L518.9,96.8z M495.6,86.7c0-0.6-0.3-1.1-1-1.4c-0.5-0.2-1.2-0.4-1.9-0.4h-8.1v9.3h8.1c0.7,0,1.3-0.1,1.8-0.3
	c0.7-0.3,1.1-0.7,1.1-1.3c0-0.6-0.4-1-1.1-1.3c-0.5-0.2-1.1-0.3-1.8-0.3H486v-2.5h6.6c0.7,0,1.3-0.1,1.9-0.4
	C495.2,87.8,495.6,87.3,495.6,86.7z M498,92.6c0,0.6-0.2,1.2-0.5,1.7c-0.9,1.6-2.7,2.4-5.2,2.4h-10.2V82.5h10.2
	c2.4,0,4.1,0.8,5.1,2.3c0.4,0.6,0.6,1.3,0.6,2c0,1.2-0.5,2.2-1.5,3C497.5,90.5,498,91.5,498,92.6z M474.1,80.2l-2.3,1.4h-1.7
	l1.7-1.4H474.1z M480.8,96.8l-3.2,0l-2.4-4h-6.8l1.5-2.5h3.8l-2.5-4.1l-6.4,10.6h-3.2l7.7-12.9c0.2-0.3,0.5-0.6,0.8-0.9
	c0.4-0.3,0.8-0.5,1.1-0.5c0.4,0,0.7,0.2,1.1,0.5c0.3,0.3,0.6,0.6,0.8,0.9L480.8,96.8z M460.3,85h-9.8v11.8H448V82.5h12.3V85z
	 M459.7,90.8h-8.1v-2.5h8.1V90.8z M440.2,96.8l-3.2,0l-2.4-4h-6.8l1.5-2.5h3.8l-2.5-4.1l-6.4,10.6h-3.2l7.7-12.9
	c0.2-0.3,0.5-0.6,0.8-0.9c0.4-0.3,0.8-0.5,1.1-0.5c0.4,0,0.7,0.2,1.1,0.5c0.3,0.3,0.6,0.6,0.8,0.9L440.2,96.8z M412,95.5
	c0,0.9-0.3,1.4-0.9,1.4c-0.5,0-1-0.3-1.5-0.8l-9.1-9.2v9.9h-2.5v-13c0-0.3,0.1-0.6,0.3-0.9c0.2-0.2,0.4-0.4,0.8-0.4
	c0.5,0,0.9,0.2,1.4,0.7l9.1,9.2v-9.9h2.5V95.5z M393.2,89.7c0-1.4-0.4-2.5-1.3-3.4c-0.9-0.9-2-1.3-3.4-1.3h-4
	c-1.4,0-2.5,0.4-3.4,1.3c-0.9,0.9-1.3,2-1.3,3.4c0,1.4,0.4,2.5,1.3,3.3c0.9,0.8,2,1.3,3.4,1.3h4c1.4,0,2.5-0.4,3.4-1.3
	C392.8,92.2,393.2,91.1,393.2,89.7z M395.7,89.5c0,2.1-0.7,3.8-2,5.2c-1.3,1.4-3.1,2.1-5.1,2.1h-4c-2.1,0-3.8-0.7-5.1-2.1
	c-1.4-1.4-2-3.1-2-5.2c0-2.1,0.7-3.8,2-5c1.3-1.3,3.1-1.9,5.2-1.9h4c2.1,0,3.8,0.6,5.2,1.9C395,85.7,395.7,87.4,395.7,89.5z
	 M363.3,96.8h-2.5V82.5h2.5V96.8z M375.2,96.8h-2.5v-5.9h-8.4v-2.5h8.4v-5.8h2.5V96.8z M359,85h-5.6v11.8H351V85h-5.6v-2.5H359V85z
	 M344.5,85h-5.6v11.8h-2.5V85h-5.6v-2.5h13.7V85z M327.2,89.7c0-1.4-0.4-2.5-1.3-3.4c-0.9-0.9-2-1.3-3.4-1.3h-4
	c-1.4,0-2.5,0.4-3.4,1.3c-0.9,0.9-1.3,2-1.3,3.4c0,1.4,0.4,2.5,1.3,3.3c0.9,0.8,2,1.3,3.4,1.3h4c1.4,0,2.5-0.4,3.4-1.3
	C326.7,92.2,327.2,91.1,327.2,89.7z M329.6,89.5c0,2.1-0.7,3.8-2,5.2c-1.3,1.4-3.1,2.1-5.1,2.1h-4c-2.1,0-3.8-0.7-5.1-2.1
	c-1.4-1.4-2-3.1-2-5.2c0-2.1,0.7-3.8,2-5c1.3-1.3,3.1-1.9,5.2-1.9h4c2.1,0,3.8,0.6,5.2,1.9C329,85.7,329.6,87.4,329.6,89.5z"/>
<rect x="2.3" y="2.4" class="st4" width="70.4" height="70.4"/>
<path class="st5" d="M33.4,20H15.2V9.1H38c7.2,0,14.4,1.9,18.5,8.3l0,0l0,0l0.1,0.1l-13.4-0.1l0,0l-1.1,0c0,0-0.1,0-0.1,0
	c0,0-0.1,0-0.1,0C38.7,17.7,35.8,18.5,33.4,20 M25.6,40.5H15.3V29.6h11.1c-0.7,2.5-0.9,5.1-0.8,7.7V40.5z M25.6,60.3H15.2V49.3h10.4
	V60.3z M58.5,47.7L58.5,47.7L58.5,47.7c-0.1,0.5-0.2,1-0.4,1.5l-0.4,1c-3.1,7.4-11.9,10-19.2,10.1V49.3h0.8c3.5,0,9.2-0.8,7.3-5.8
	c-1.1-2.9-5.5-3.1-8-3.1l0,0h-0.1V37l0,0c-0.1-1.7-0.1-3.7,0.8-5.1c0.6-0.9,1.7-1.3,2.7-1.4h15.4c-0.8,1.7-1.9,3.2-3.3,4.5
	c0.2,0.2,0.4,0.3,0.5,0.5c0.9,0.9,1.7,1.8,2.4,2.9C58.8,41.2,59.1,44.5,58.5,47.7z"/>
<path class="st6" d="M26.7,66.6V37.2c-0.2-3.9,0.4-8,2.6-11.5c2.4-3.9,6.4-6.8,12.7-7.1c0.1,0,0,0,0.2,0l0,0h22.5v10.7H42v0
	c-1.9,0.2-3,0.9-3.6,1.9c-1.1,1.7-1.1,3.9-1,5.9l0,0v29.5H26.7z"/>
</svg>
